<svg height="512" viewBox="0 0 128 128" width="512" xmlns="http://www.w3.org/2000/svg"><g><path d="m33.508 104.596h-1.831-17.833v-6h16.003l30.329-58.968 5.336 2.744-31.167 60.596z" fill="#eaeaf0"/><path d="m12.5 81.692h-6v39.808h6 6v-39.808z" fill="#bebec3"/><circle cx="57.51" cy="49.874" fill="#bebec3" r="8"/><path d="m80.698 42.987h21.625v16.278h-21.625z" fill="#eaeaf0" transform="matrix(.926 .379 -.379 .926 26.168 -30.841)"/><path d="m23.902 30.096h71.5v19.8h-71.5z" fill="#b24f60" transform="matrix(.926 .379 -.379 .926 19.583 -19.607)"/><path d="m106.543 59.645-80.143-32.783 8.329-20.362 86.771 35.494z" fill="#df6379"/><path d="m105.355 43.623a1.757 1.757 0 0 1 -.662-.13l-11.937-4.884a1.75 1.75 0 0 1 1.325-3.24l11.937 4.884a1.75 1.75 0 0 1 -.663 3.37z" fill="#b24f60"/></g></svg>