<svg id="Layer_3" enable-background="new 0 0 64 64" height="512" viewBox="0 0 64 64" width="512" xmlns="http://www.w3.org/2000/svg"><g><g fill="#669e4f"><path d="m2 46h16v16h-16z"/><path d="m24 46h16v16h-16z"/><path d="m46 46h16v16h-16z"/></g><path d="m47 19v-4l-4.24-.283c-.284-1.344-.816-2.594-1.541-3.707l2.802-3.202-2.828-2.828-3.203 2.801c-1.114-.725-2.364-1.257-3.707-1.541l-.283-4.24h-4l-.283 4.24c-1.344.284-2.594.816-3.707 1.541l-3.202-2.802-2.828 2.828 2.802 3.202c-.725 1.114-1.257 2.364-1.541 3.707l-4.241.284v4l4.24.283c.284 1.344.816 2.594 1.541 3.707l-2.802 3.202 2.828 2.828 3.202-2.802c1.114.725 2.364 1.257 3.707 1.541l.284 4.241h4l.283-4.24c1.344-.284 2.594-.816 3.707-1.541l3.202 2.802 2.828-2.828-2.802-3.202c.725-1.114 1.257-2.364 1.541-3.707zm-15 5c-3.866 0-7-3.134-7-7s3.134-7 7-7 7 3.134 7 7-3.134 7-7 7z" fill="#3d98f7"/><g><path d="m31 32h2v11h-2z" fill="#8892a0"/></g><g><path d="m11 43h-2v-5c0-.553.448-1 1-1h12v-5h2v6c0 .553-.448 1-1 1h-12z" fill="#8892a0"/></g><g><path d="m55 43h-2v-4h-12c-.552 0-1-.447-1-1v-6h2v5h12c.552 0 1 .447 1 1z" fill="#8892a0"/></g></g></svg>